<?xml version="1.0" encoding="UTF-8" standalone="no"?>
<!-- Created with Inkscape (http://www.inkscape.org/) -->

<svg
   xmlns:dc="http://purl.org/dc/elements/1.1/"
   xmlns:cc="http://creativecommons.org/ns#"
   xmlns:rdf="http://www.w3.org/1999/02/22-rdf-syntax-ns#"
   xmlns:svg="http://www.w3.org/2000/svg"
   xmlns="http://www.w3.org/2000/svg"
   xmlns:sodipodi="http://sodipodi.sourceforge.net/DTD/sodipodi-0.dtd"
   xmlns:inkscape="http://www.inkscape.org/namespaces/inkscape"
   width="150.92792mm"
   height="19.276785mm"
   viewBox="0 0 150.92792 19.276785"
   version="1.1"
   id="svg8"
   inkscape:version="0.92pre2 r"
   sodipodi:docname="logo.svg">
  <defs
     id="defs2">
    <clipPath
       id="clipPath16"
       clipPathUnits="userSpaceOnUse">
      <path
         inkscape:connector-curvature="0"
         id="path18"
         d="M 0,412.326 H 908.373 V 0 H 0 Z" />
    </clipPath>
  </defs>
  <sodipodi:namedview
     id="base"
     pagecolor="#bfbfbf"
     bordercolor="#666666"
     borderopacity="1.0"
     inkscape:pageopacity="0"
     inkscape:pageshadow="2"
     inkscape:zoom="0.98994949"
     inkscape:cx="485.80291"
     inkscape:cy="-162.26432"
     inkscape:document-units="mm"
     inkscape:current-layer="layer1"
     showgrid="false"
     fit-margin-top="0"
     fit-margin-left="0"
     fit-margin-right="0"
     fit-margin-bottom="0"
     inkscape:window-width="1920"
     inkscape:window-height="986"
     inkscape:window-x="0"
     inkscape:window-y="140"
     inkscape:window-maximized="1" />
  <metadata
     id="metadata5">
    <rdf:RDF>
      <cc:Work
         rdf:about="">
        <dc:format>image/svg+xml</dc:format>
        <dc:type
           rdf:resource="http://purl.org/dc/dcmitype/StillImage" />
        <dc:title></dc:title>
      </cc:Work>
    </rdf:RDF>
  </metadata>
  <g
     inkscape:label="Layer 1"
     inkscape:groupmode="layer"
     id="layer1"
     transform="translate(79.51541,-153.57399)">
    <g
       id="g6424">
      <text
         xml:space="preserve"
         style="font-style:normal;font-weight:normal;font-size:26.07641983px;line-height:58.23733902px;font-family:sans-serif;letter-spacing:0px;word-spacing:0px;fill:#046aa7;fill-opacity:1;stroke:none;stroke-width:2.60764194px;stroke-linecap:butt;stroke-linejoin:miter;stroke-opacity:1"
         x="-24.711277"
         y="170.57896"
         id="text4496-3"><tspan
           sodipodi:role="line"
           x="-24.711277"
           y="170.57896"
           style="font-style:normal;font-variant:normal;font-weight:normal;font-stretch:normal;line-height:0px;font-family:'Saucer BB';-inkscape-font-specification:'Saucer BB';fill:#ffffff;fill-opacity:1;stroke-width:2.60764194px"
           id="tspan4502-6">SIP2.0</tspan></text>
      <g
         id="g10"
         inkscape:label="ceh logo finale"
         transform="matrix(0.11867142,0,0,-0.11867142,-131.58855,204.94594)">
        <g
           id="g12"
           transform="translate(5.3121225,228.42127)">
          <g
             id="g14"
             clip-path="url(#clipPath16)">
            <g
               id="g20"
               transform="translate(857.6055,123.25)">
              <path
                 d="m 0,0 c 0,-41.504 -33.646,-75.15 -75.15,-75.15 -41.504,0 -75.157,33.646 -75.157,75.15 0,41.503 33.653,75.156 75.157,75.156 C -33.646,75.156 0,41.503 0,0"
                 style="fill:#168aa5;fill-opacity:1;fill-rule:nonzero;stroke:none"
                 id="path22"
                 inkscape:connector-curvature="0" />
            </g>
            <g
               id="g24"
               transform="translate(857.6055,123.25)">
              <path
                 d="m 0,0 c 0,-41.504 -33.646,-75.15 -75.15,-75.15 -41.504,0 -75.157,33.646 -75.157,75.15 0,41.503 33.653,75.156 75.157,75.156 C -33.646,75.156 0,41.503 0,0 Z"
                 style="fill:none;stroke:#ffffff;stroke-width:3.0940001;stroke-linecap:butt;stroke-linejoin:miter;stroke-miterlimit:10;stroke-dasharray:none;stroke-opacity:1"
                 id="path26"
                 inkscape:connector-curvature="0" />
            </g>
            <g
               id="g28"
               transform="translate(802.4766,74.1973)">
              <path
                 d="m 0,0 -3.515,8.643 c 16.654,6.767 27.412,22.734 27.412,40.681 0,17.619 -10.758,33.375 -27.412,40.141 L 0,98.112 C 20.184,89.906 33.226,70.758 33.226,49.324 33.226,27.562 20.184,8.203 0,0"
                 style="fill:#ffffff;fill-opacity:1;fill-rule:nonzero;stroke:none"
                 id="path30"
                 inkscape:connector-curvature="0" />
            </g>
            <g
               id="g32"
               transform="translate(802.4766,74.1973)">
              <path
                 d="m 0,0 -3.515,8.643 c 16.654,6.767 27.412,22.734 27.412,40.681 0,17.619 -10.758,33.375 -27.412,40.141 L 0,98.112 C 20.184,89.906 33.226,70.758 33.226,49.324 33.226,27.562 20.184,8.203 0,0 Z"
                 style="fill:none;stroke:#ffffff;stroke-width:3.0940001;stroke-linecap:butt;stroke-linejoin:miter;stroke-miterlimit:10;stroke-dasharray:none;stroke-opacity:1"
                 id="path34"
                 inkscape:connector-curvature="0" />
            </g>
            <g
               id="g36"
               transform="translate(763.1934,123.2988)">
              <path
                 d="M 0,0 C 0.072,-0.031 0.142,-0.061 0.212,-0.09"
                 style="fill:#ffffff;fill-opacity:1;fill-rule:nonzero;stroke:#ffffff;stroke-width:12.37800026;stroke-linecap:butt;stroke-linejoin:miter;stroke-miterlimit:10;stroke-dasharray:none;stroke-opacity:1"
                 id="path38"
                 inkscape:connector-curvature="0" />
            </g>
            <g
               id="g40"
               transform="translate(762.7773,123.3438)">
              <path
                 d="M 0,0 C 0.142,-0.062 0.277,-0.125 0.416,-0.186"
                 style="fill:#ffffff;fill-opacity:1;fill-rule:nonzero;stroke:#ffffff;stroke-width:12.37800026;stroke-linecap:butt;stroke-linejoin:miter;stroke-miterlimit:10;stroke-dasharray:none;stroke-opacity:1"
                 id="path42"
                 inkscape:connector-curvature="0" />
            </g>
            <g
               id="g44"
               transform="translate(762.2148,123.377)">
              <path
                 d="M 0,0 C 0.187,-0.084 0.375,-0.168 0.562,-0.254"
                 style="fill:#ffffff;fill-opacity:1;fill-rule:nonzero;stroke:#ffffff;stroke-width:12.37800026;stroke-linecap:butt;stroke-linejoin:miter;stroke-miterlimit:10;stroke-dasharray:none;stroke-opacity:1"
                 id="path46"
                 inkscape:connector-curvature="0" />
            </g>
            <g
               id="g48"
               transform="translate(761.3809,123.4492)">
              <path
                 d="M 0,0 C 0.278,-0.133 0.556,-0.266 0.834,-0.393"
                 style="fill:#ffffff;fill-opacity:1;fill-rule:nonzero;stroke:#ffffff;stroke-width:12.37800026;stroke-linecap:butt;stroke-linejoin:miter;stroke-miterlimit:10;stroke-dasharray:none;stroke-opacity:1"
                 id="path50"
                 inkscape:connector-curvature="0" />
            </g>
            <g
               id="g52"
               transform="translate(759.3594,74.959)">
              <path
                 d="m 0,0 c -18.601,8.951 -30.156,27.258 -30.156,47.789 0,21.25 12.706,40.407 32.37,48.798 l 3.663,-8.582 c -16.222,-6.921 -26.705,-22.706 -26.705,-40.216 0,-16.912 9.531,-32.002 24.871,-39.381 z"
                 style="fill:#ffffff;fill-opacity:1;fill-rule:nonzero;stroke:none"
                 id="path54"
                 inkscape:connector-curvature="0" />
            </g>
            <g
               id="g56"
               transform="translate(759.3594,74.959)">
              <path
                 d="m 0,0 c -18.601,8.951 -30.156,27.258 -30.156,47.789 0,21.25 12.706,40.407 32.37,48.798 l 3.663,-8.582 c -16.222,-6.921 -26.705,-22.706 -26.705,-40.216 0,-16.912 9.531,-32.002 24.871,-39.381 z"
                 style="fill:none;stroke:#ffffff;stroke-width:3.0940001;stroke-linecap:butt;stroke-linejoin:miter;stroke-miterlimit:10;stroke-dasharray:none;stroke-opacity:1"
                 id="path58"
                 inkscape:connector-curvature="0" />
            </g>
            <g
               id="g60"
               transform="translate(732.373,123.3262)">
              <path
                 d="M 0,0 H 96"
                 style="fill:#ffffff;fill-opacity:1;fill-rule:nonzero;stroke:#ffffff;stroke-width:12;stroke-linecap:butt;stroke-linejoin:miter;stroke-miterlimit:10;stroke-dasharray:none;stroke-opacity:1"
                 id="path62"
                 inkscape:connector-curvature="0" />
            </g>
            <g
               id="g64"
               transform="translate(718.7793,124.5117)">
              <path
                 d="m 0,0 c 0,-41.504 -33.646,-75.152 -75.155,-75.152 -41.504,0 -75.15,33.648 -75.15,75.152 0,41.504 33.646,75.152 75.15,75.152 C -33.646,75.152 0,41.504 0,0"
                 style="fill:#f3be26;fill-opacity:1;fill-rule:nonzero;stroke:none"
                 id="path66"
                 inkscape:connector-curvature="0" />
            </g>
            <g
               id="g68"
               transform="translate(718.7793,124.5117)">
              <path
                 d="m 0,0 c 0,-41.504 -33.646,-75.152 -75.155,-75.152 -41.504,0 -75.15,33.648 -75.15,75.152 0,41.504 33.646,75.152 75.15,75.152 C -33.646,75.152 0,41.504 0,0 Z"
                 style="fill:none;stroke:#ffffff;stroke-width:3.0940001;stroke-linecap:butt;stroke-linejoin:miter;stroke-miterlimit:10;stroke-dasharray:none;stroke-opacity:1"
                 id="path70"
                 inkscape:connector-curvature="0" />
            </g>
            <g
               id="g72"
               transform="translate(585.3359,121.9922)">
              <path
                 d="m 0,0 c 0,-41.506 -33.646,-75.152 -75.15,-75.152 -41.504,0 -75.15,33.646 -75.15,75.152 0,41.504 33.646,75.151 75.15,75.151 C -33.646,75.151 0,41.504 0,0"
                 style="fill:#95b716;fill-opacity:1;fill-rule:nonzero;stroke:none"
                 id="path74"
                 inkscape:connector-curvature="0" />
            </g>
            <g
               id="g76"
               transform="translate(585.3359,121.9922)">
              <path
                 d="m 0,0 c 0,-41.506 -33.646,-75.152 -75.15,-75.152 -41.504,0 -75.15,33.646 -75.15,75.152 0,41.504 33.646,75.151 75.15,75.151 C -33.646,75.151 0,41.504 0,0 Z"
                 style="fill:none;stroke:#ffffff;stroke-width:3.0940001;stroke-linecap:butt;stroke-linejoin:miter;stroke-miterlimit:10;stroke-dasharray:none;stroke-opacity:1"
                 id="path78"
                 inkscape:connector-curvature="0" />
            </g>
            <g
               id="g80"
               transform="translate(544.7031,86.2363)">
              <path
                 d="m 0,0 3.034,-2.801 c -4.515,-4.201 -9.719,-7.51 -15.636,-9.918 -5.91,-2.416 -12.214,-3.619 -18.905,-3.619 -7.006,0 -13.574,1.318 -19.721,3.971 -6.147,2.642 -11.557,6.299 -16.222,10.965 -4.666,4.67 -8.328,10.076 -10.97,16.222 -2.647,6.147 -3.965,12.719 -3.965,19.721 0,7.006 1.318,13.576 3.965,19.721 2.642,6.146 6.304,11.556 10.97,16.222 4.665,4.67 10.075,8.323 16.222,10.97 6.147,2.644 12.715,3.968 19.721,3.968 6.691,0 12.995,-1.205 18.905,-3.617 5.917,-2.414 11.121,-5.719 15.636,-9.918 L 0,69.084 c -4.05,3.734 -8.795,6.731 -14.233,8.986 -5.452,2.255 -11.206,3.384 -17.274,3.384 -6.534,0 -12.643,-1.247 -18.319,-3.732 -5.682,-2.493 -10.626,-5.878 -14.825,-10.156 -4.195,-4.279 -7.549,-9.257 -10.034,-14.935 -2.491,-5.682 -3.735,-11.711 -3.735,-18.09 0,-6.533 1.244,-12.643 3.735,-18.318 2.485,-5.684 5.839,-10.623 10.034,-14.819 4.199,-4.205 9.143,-7.55 14.825,-10.041 5.676,-2.49 11.785,-3.73 18.319,-3.73 6.068,0 11.822,1.084 17.274,3.265 C -8.795,-6.926 -4.05,-3.891 0,0"
                 style="fill:#ededed;fill-opacity:1;fill-rule:nonzero;stroke:none"
                 id="path82"
                 inkscape:connector-curvature="0" />
            </g>
            <g
               id="g84"
               transform="translate(544.7031,86.2363)">
              <path
                 d="m 0,0 3.034,-2.801 c -4.515,-4.201 -9.719,-7.51 -15.636,-9.918 -5.91,-2.416 -12.214,-3.619 -18.905,-3.619 -7.006,0 -13.574,1.318 -19.721,3.971 -6.147,2.642 -11.557,6.299 -16.222,10.965 -4.666,4.67 -8.328,10.076 -10.97,16.222 -2.647,6.147 -3.965,12.719 -3.965,19.721 0,7.006 1.318,13.576 3.965,19.721 2.642,6.146 6.304,11.556 10.97,16.222 4.665,4.67 10.075,8.323 16.222,10.97 6.147,2.644 12.715,3.968 19.721,3.968 6.691,0 12.995,-1.205 18.905,-3.617 5.917,-2.414 11.121,-5.719 15.636,-9.918 L 0,69.084 c -4.05,3.734 -8.795,6.731 -14.233,8.986 -5.452,2.255 -11.206,3.384 -17.274,3.384 -6.534,0 -12.643,-1.247 -18.319,-3.732 -5.682,-2.493 -10.626,-5.878 -14.825,-10.156 -4.195,-4.279 -7.549,-9.257 -10.034,-14.935 -2.491,-5.682 -3.735,-11.711 -3.735,-18.09 0,-6.533 1.244,-12.643 3.735,-18.318 2.485,-5.684 5.839,-10.623 10.034,-14.819 4.199,-4.205 9.143,-7.55 14.825,-10.041 5.676,-2.49 11.785,-3.73 18.319,-3.73 6.068,0 11.822,1.084 17.274,3.265 C -8.795,-6.926 -4.05,-3.891 0,0 Z"
                 style="fill:none;stroke:#ffffff;stroke-width:9.28299999;stroke-linecap:butt;stroke-linejoin:miter;stroke-miterlimit:10;stroke-dasharray:none;stroke-opacity:1"
                 id="path86"
                 inkscape:connector-curvature="0" />
            </g>
            <g
               id="g88"
               transform="translate(602.8457,121.9297)">
              <path
                 d="m 0,0 c 0,-6.064 1.088,-11.826 3.271,-17.271 2.174,-5.452 5.208,-10.268 9.1,-14.469 l 66.048,66.283 c -4.043,3.736 -8.787,6.727 -14.232,8.988 -5.453,2.255 -11.207,3.382 -17.274,3.382 -6.534,0 -12.639,-1.248 -18.319,-3.733 C 22.912,40.687 17.975,37.305 13.768,33.027 9.573,28.744 6.219,23.768 3.735,18.088 1.245,12.404 0,6.379 0,0 m 46.913,-46.91 c 6.067,0 11.821,1.086 17.274,3.264 5.445,2.179 10.189,5.212 14.232,9.101 l 3.035,-2.799 c -4.515,-4.201 -9.725,-7.506 -15.637,-9.918 -5.916,-2.416 -12.213,-3.619 -18.904,-3.619 -6.691,0 -12.994,1.203 -18.905,3.619 -5.918,2.412 -11.128,5.717 -15.637,9.918 l -2.798,2.799 c -4.2,4.516 -7.512,9.725 -9.919,15.639 -2.423,5.912 -3.625,12.211 -3.625,18.906 0,7 1.324,13.574 3.971,19.721 2.647,6.146 6.304,11.552 10.969,16.224 4.666,4.667 10.076,8.32 16.222,10.968 6.141,2.644 12.723,3.967 19.722,3.967 6.691,0 12.988,-1.208 18.904,-3.617 5.912,-2.415 11.122,-5.718 15.637,-9.921 L 84.258,34.543 15.17,-34.545 c 4.201,-3.889 9.023,-6.922 14.469,-9.101 5.446,-2.178 11.206,-3.264 17.274,-3.264"
                 style="fill:#ededed;fill-opacity:1;fill-rule:nonzero;stroke:none"
                 id="path90"
                 inkscape:connector-curvature="0" />
            </g>
            <g
               id="g92"
               transform="translate(602.52055,124.5122)">
              <path
                 d="m 0,0 c 0,-6.064 1.088,-11.826 3.271,-17.271 2.174,-5.452 5.208,-10.268 9.1,-14.469 l 66.048,66.283 c -4.043,3.736 -8.787,6.727 -14.232,8.988 -5.453,2.255 -11.207,3.382 -17.274,3.382 -6.534,0 -12.639,-1.248 -18.319,-3.733 C 22.912,40.687 17.975,37.305 13.768,33.027 9.573,28.744 6.219,23.768 3.735,18.088 1.245,12.404 0,6.379 0,0 Z m 46.913,-46.91 c 6.067,0 11.821,1.086 17.274,3.264 5.445,2.179 10.189,5.212 14.232,9.101 l 3.035,-2.799 c -4.515,-4.201 -9.725,-7.506 -15.637,-9.918 -5.916,-2.416 -12.213,-3.619 -18.904,-3.619 -6.691,0 -12.994,1.203 -18.905,3.619 -5.918,2.412 -11.128,5.717 -15.637,9.918 l -2.798,2.799 c -4.2,4.516 -7.512,9.725 -9.919,15.639 -2.423,5.912 -3.625,12.211 -3.625,18.906 0,7 1.324,13.574 3.971,19.721 2.647,6.146 6.304,11.552 10.969,16.224 4.666,4.667 10.076,8.32 16.222,10.968 6.141,2.644 12.723,3.967 19.722,3.967 6.691,0 12.988,-1.208 18.904,-3.617 5.912,-2.415 11.122,-5.718 15.637,-9.921 L 84.258,34.543 15.17,-34.545 c 4.201,-3.889 9.023,-6.922 14.469,-9.101 5.446,-2.178 11.206,-3.264 17.274,-3.264 z"
                 style="fill:none;stroke:#ffffff;stroke-width:9.28299999;stroke-linecap:butt;stroke-linejoin:miter;stroke-miterlimit:10;stroke-dasharray:none;stroke-opacity:1"
                 id="path94"
                 inkscape:connector-curvature="0" />
            </g>
          </g>
        </g>
      </g>
      <rect
         y="153.57399"
         x="-27.789377"
         height="19.276785"
         width="1.5119048"
         id="rect6378"
         style="color:#000000;clip-rule:nonzero;display:inline;overflow:visible;visibility:visible;opacity:1;isolation:auto;mix-blend-mode:normal;color-interpolation:sRGB;color-interpolation-filters:linearRGB;solid-color:#000000;solid-opacity:1;fill:#ffffff;fill-opacity:1;fill-rule:nonzero;stroke:none;stroke-width:0.02608258;stroke-linecap:butt;stroke-linejoin:miter;stroke-miterlimit:4;stroke-dasharray:none;stroke-dashoffset:0;stroke-opacity:1;color-rendering:auto;image-rendering:auto;shape-rendering:auto;text-rendering:auto;enable-background:accumulate" />
    </g>
  </g>
</svg>
